<svg height="512" viewBox="0 0 512 512" width="512" xmlns="http://www.w3.org/2000/svg"><g id="Filled_outline" data-name="Filled outline"><path d="m96 288v-104a24 24 0 0 1 24-24h104a16 16 0 0 1 16 16 16 16 0 0 1 -16 16h-96v96a16 16 0 0 1 -16 16 16 16 0 0 1 -16-16z" fill="#426887"/><path d="m176 48v208h-80a24 24 0 0 0 -24 24 24 24 0 0 0 24 24h272a24 24 0 0 0 24-24v-232a24 24 0 0 0 -24-24h-168a24 24 0 0 0 -24 24z" fill="#348ed8"/><g fill="#426887"><path d="m240 288v-104a24 24 0 0 1 24-24h112a16 16 0 0 1 16 16 16 16 0 0 1 -16 16h-104v96a16 16 0 0 1 -16 16 16 16 0 0 1 -16-16z"/><path d="m224 304h64v56h-64z"/><path d="m272 432v-72h-32v72l-88 24v16h208v-16z"/></g><circle cx="148" cy="468" fill="#35546d" r="20"/><circle cx="364" cy="468" fill="#35546d" r="20"/><path d="m440.942 374.508-35.942-28.755a8 8 0 0 0 -10.654.59l-8 8a8 8 0 0 0 -.59 10.655l28.756 35.944a18.806 18.806 0 1 0 26.433-26.434z" fill="#426887"/><path d="m240 360h32v16h-32z" fill="#3c6180"/><path d="m216 64h-16v-16h16zm-16 64h16v-48h-16zm-16-24v144h48v-64a32.036 32.036 0 0 1 32-32h112a23.889 23.889 0 0 1 8 1.376v-105.376a16.019 16.019 0 0 0 -16-16h-168a16.019 16.019 0 0 0 -16 16v40h-16v-40a32.036 32.036 0 0 1 32-32h168a32.036 32.036 0 0 1 32 32v176h-16v-25.376a23.889 23.889 0 0 1 -8 1.376h-96v48h64v16h-64v24a23.889 23.889 0 0 1 -1.376 8h89.376a16.019 16.019 0 0 0 16-16v-40h16v40a32.036 32.036 0 0 1 -32 32h-72v16h80a8 8 0 0 1 5.657 2.343l14.594 14.594a8 8 0 0 1 8.746.816l35.945 28.755a18.806 18.806 0 1 1 -26.433 26.434l-28.756-35.942a8 8 0 0 1 -.816-8.747l-12.25-12.253h-76.687v16a8 8 0 0 1 -8 8h-40v64a8 8 0 0 1 -5.9 7.718l-67.868 18.507a27.8 27.8 0 0 1 1.478 5.775h160.58a27.8 27.8 0 0 1 1.474-5.775l-67.864-18.507a8 8 0 0 1 -5.9-7.718v-48h16v41.889l68.64 18.717a27.992 27.992 0 1 1 -9.933 35.394h-165.414a28.016 28.016 0 1 1 -9.933-35.394l68.64-18.717v-57.889h-8a8 8 0 0 1 -8-8v-48h-120a32 32 0 0 1 -8-62.987v-65.013a32.036 32.036 0 0 1 32-32h48v-48zm-24 364a12 12 0 1 0 -12 12 12.013 12.013 0 0 0 12-12zm192 0a12 12 0 1 0 12-12 12.013 12.013 0 0 0 -12 12zm59.226-96.775 15.774 19.722a2.806 2.806 0 1 0 3.946-3.947zm-307.226-123.225h16v-56a8 8 0 0 1 8-8h40v-16h-48a16.019 16.019 0 0 0 -16 16zm32-48v48h32v-48zm112 88a8 8 0 0 0 16 0v-96a8 8 0 0 1 8-8h104a8 8 0 0 0 0-16h-112a16.019 16.019 0 0 0 -16 16zm-16 24v40h48v-40zm-136-48a16 16 0 0 0 0 32h137.376a23.889 23.889 0 0 1 -1.376-8v-24z"/></g></svg>